<?xml version="1.0" standalone="no"?><!DOCTYPE svg PUBLIC "-//W3C//DTD SVG 1.1//EN" "http://www.w3.org/Graphics/SVG/1.1/DTD/svg11.dtd"><svg t="1596701960358" class="icon" viewBox="0 0 1024 1024" version="1.1" xmlns="http://www.w3.org/2000/svg" p-id="3737" xmlns:xlink="http://www.w3.org/1999/xlink" width="200" height="200"><defs><style type="text/css"></style></defs><path d="M312.6 949.5c-7.9 0-15.4-3.1-21.1-8.6-5.7-5.6-8.9-13.2-9-21.2-0.1-8 3-15.6 8.6-21.4l198.1-201.9c5.6-5.7 13.5-9 21.5-9h315.7c16.2 0 29.4-13.2 29.4-29.4V198.1c0-16.2-13.2-29.4-29.4-29.4H197.6c-16.2 0-29.4 13.2-29.4 29.4v459.8c0 16.2 13.2 29.4 29.4 29.4h105.1c16.6 0 30.1 13.5 30.1 30.1s-13.5 30.1-30.1 30.1H197.6c-49.4 0-89.6-40.2-89.6-89.6V198.1c0-49.4 40.2-89.6 89.6-89.6h628.8c49.4 0 89.6 40.2 89.6 89.6v459.8c0 49.4-40.2 89.6-89.6 89.6H523.3l-189.2 193c-5.7 5.8-13.4 9-21.5 9z" fill="#B3B3B3" p-id="3738"></path><path d="M262 466c-19.3 0-35-15.7-35-35s15.7-35 35-35h70c19.3 0 35 15.7 35 35s-15.7 35-35 35h-70zM477 466c-19.3 0-35-15.7-35-35s15.7-35 35-35h70c19.3 0 35 15.7 35 35s-15.7 35-35 35h-70zM692 466c-19.3 0-35-15.7-35-35s15.7-35 35-35h70c19.3 0 35 15.7 35 35s-15.7 35-35 35h-70z" fill="#B3B3B3" p-id="3739"></path></svg>